<svg width="187" height="42" viewBox="0 0 187 42" fill="none" xmlns="http://www.w3.org/2000/svg">
<path d="M52.464 32H56.688V24.352C56.688 22.304 56.304 19.264 56.08 17.248H56.208L57.872 22.208L60.848 30.176H63.44L66.416 22.208L68.112 17.248H68.24C68.016 19.264 67.632 22.304 67.632 24.352V32H71.92V11.136H66.8L63.504 20.416C63.088 21.632 62.736 22.976 62.32 24.256H62.192C61.776 22.976 61.392 21.632 60.976 20.416L57.616 11.136H52.464V32ZM82.971 32.384C86.971 32.384 90.683 29.344 90.683 24.064C90.683 18.784 86.971 15.744 82.971 15.744C78.939 15.744 75.227 18.784 75.227 24.064C75.227 29.344 78.939 32.384 82.971 32.384ZM82.971 28.576C81.019 28.576 80.059 26.816 80.059 24.064C80.059 21.312 81.019 19.552 82.971 19.552C84.891 19.552 85.883 21.312 85.883 24.064C85.883 26.816 84.891 28.576 82.971 28.576ZM97.003 32H102.443L107.627 16.128H103.115L101.035 23.616C100.619 25.184 100.203 26.848 99.819 28.512H99.691C99.275 26.848 98.859 25.184 98.443 23.616L96.395 16.128H91.659L97.003 32ZM109.805 32H114.509V16.128H109.805V32ZM112.141 13.792C113.741 13.792 114.861 12.768 114.861 11.328C114.861 9.888 113.741 8.896 112.141 8.896C110.573 8.896 109.421 9.888 109.421 11.328C109.421 12.768 110.573 13.792 112.141 13.792ZM125.453 32.384C127.341 32.384 129.453 31.712 131.085 30.592L129.517 27.744C128.365 28.448 127.277 28.8 126.093 28.8C123.981 28.8 122.381 27.744 121.965 25.44H131.469C131.565 25.056 131.661 24.192 131.661 23.36C131.661 19.04 129.421 15.744 124.909 15.744C121.101 15.744 117.421 18.912 117.421 24.064C117.421 29.312 120.909 32.384 125.453 32.384ZM121.933 22.336C122.253 20.32 123.533 19.328 125.005 19.328C126.893 19.328 127.661 20.576 127.661 22.336H121.933Z" fill="#001217"/>
<path d="M139.891 21.44C140.467 19.36 141.011 16.928 141.523 14.72H141.651C142.195 16.896 142.771 19.36 143.347 21.44L143.827 23.36H139.379L139.891 21.44ZM132.339 32H137.139L138.419 27.04H144.787L146.067 32H151.059L144.531 11.136H138.867L132.339 32ZM152.655 37.888H157.359V33.248L157.199 30.72C158.319 31.776 159.599 32.384 160.975 32.384C164.399 32.384 167.663 29.248 167.663 23.808C167.663 18.912 165.295 15.744 161.455 15.744C159.791 15.744 158.191 16.576 156.943 17.696H156.815L156.495 16.128H152.655V37.888ZM159.887 28.544C159.087 28.544 158.191 28.288 157.359 27.52V21.024C158.287 20.032 159.119 19.584 160.079 19.584C161.967 19.584 162.831 21.024 162.831 23.872C162.831 27.136 161.519 28.544 159.887 28.544ZM170.699 37.888H175.403V33.248L175.243 30.72C176.363 31.776 177.643 32.384 179.019 32.384C182.443 32.384 185.707 29.248 185.707 23.808C185.707 18.912 183.339 15.744 179.499 15.744C177.835 15.744 176.235 16.576 174.987 17.696H174.859L174.539 16.128H170.699V37.888ZM177.931 28.544C177.131 28.544 176.235 28.288 175.403 27.52V21.024C176.331 20.032 177.163 19.584 178.123 19.584C180.011 19.584 180.875 21.024 180.875 23.872C180.875 27.136 179.563 28.544 177.931 28.544Z" fill="#FCA311"/>
<path d="M35 5.25H7C5.06975 5.25 3.5 6.81975 3.5 8.75V33.25C3.5 35.1803 5.06975 36.75 7 36.75H35C36.9302 36.75 38.5 35.1803 38.5 33.25V8.75C38.5 6.81975 36.9302 5.25 35 5.25ZM35.0017 15.75C35 15.75 35 15.75 35.0017 15.75H34.188L29.5207 8.75H35L35.0017 15.75ZM16.688 15.75L12.0208 8.75H16.5638L21.231 15.75H16.688ZM25.438 15.75L20.7708 8.75H25.3138L29.981 15.75H25.438ZM7 8.75H7.81375L12.481 15.75H7V8.75ZM7 33.25V19.25H35L35.0035 33.25H7Z" fill="#FCA311"/>
<path d="M17.5 31.5L27.125 26.25L17.5 21V31.5Z" fill="black"/>
</svg>
